<svg xmlns="http://www.w3.org/2000/svg" version="1.0" width="300.000000pt" height="241.000000pt" viewBox="0 0 300.000000 241.000000" preserveAspectRatio="xMidYMid meet">
<metadata fill="#0f5259">
Created by potrace 1.10, written by Peter Selinger 2001-2011
</metadata>
<g transform="translate(0.000000,241.000000) scale(0.100000,-0.100000)" fill="#0f5259" stroke="none">
<path d="M1154 2296 c-67 -31 -89 -63 -162 -226 l-61 -135 -275 -2 c-275 -2 -276 -2 -335 -28 -73 -33 -132 -92 -168 -170 l-28 -60 0 -650 0 -650 26 -55 c50 -105 131 -163 276 -197 98 -23 953 -32 953 -10 0 12 -60 15 -377 21 -417 8 -480 14 -568 55 -79 36 -124 77 -161 143 l-29 53 0 635 0 635 22 42 c31 57 86 100 147 113 31 6 158 10 320 10 147 -1 271 2 275 7 4 4 39 78 76 163 38 85 79 166 92 180 l23 25 488 3 c459 2 489 1 517 -16 24 -15 46 -53 109 -193 l78 -174 289 -3 c200 -2 289 0 289 7 0 6 -1 11 -2 11 -2 1 -108 9 -236 19 -128 10 -234 20 -235 22 -9 13 -137 299 -137 307 0 26 -63 92 -111 116 l-53 26 -495 0 -496 0 -51 -24z m1031 -16 c3 -5 26 -18 50 -29 51 -22 63 -40 122 -169 24 -53 55 -123 70 -155 14 -31 23 -61 19 -64 -17 -17 -41 21 -102 157 -69 154 -111 210 -159 210 -14 0 -25 6 -25 13 0 9 -47 11 -207 10 -115 -2 -325 -4 -468 -5 -341 -4 -322 6 -432 -233 l-69 -150 -290 -5 c-274 -5 -292 -6 -339 -28 -57 -26 -100 -69 -126 -127 -20 -47 -40 -143 -29 -150 6 -3 6 -62 0 -85 -7 -28 3 -1046 10 -1065 6 -16 6 -25 0 -25 -6 0 -6 -10 0 -26 12 -32 12 -34 0 -34 -5 0 -10 7 -10 15 0 9 -6 12 -15 9 -17 -7 -21 21 -5 31 6 4 4 15 -5 29 -13 20 -15 86 -13 475 2 248 0 451 -4 451 -14 0 -9 23 9 43 17 19 17 20 0 14 -16 -6 -17 -2 -12 51 3 31 7 95 9 142 6 138 49 216 156 278 l45 27 281 5 c263 5 283 6 304 25 20 18 57 90 120 230 25 58 53 90 95 113 26 15 85 18 465 22 239 3 461 6 492 7 31 2 60 -1 63 -7z m-1935 -1977 c0 -10 14 -32 30 -50 17 -18 30 -35 30 -39 0 -9 -51 25 -83 57 -25 26 -26 29 -10 38 26 15 33 13 33 -6z" fill="#0f5259"/>
<path d="M1525 1784 c-362 -81 -619 -410 -618 -794 0 -127 20 -214 72 -324 92 -195 252 -336 456 -402 110 -36 279 -44 391 -19 361 79 614 403 616 790 1 130 -17 213 -71 330 -86 185 -249 328 -454 397 -77 26 -111 31 -207 34 -79 3 -137 -1 -185 -12z m329 -54 c258 -66 454 -261 523 -520 21 -80 23 -252 4 -329 -66 -264 -263 -466 -519 -532 -105 -27 -262 -26 -362 2 -126 35 -224 92 -321 189 -73 73 -94 101 -132 180 -25 52 -52 127 -61 167 -69 315 90 646 379 789 150 74 333 94 489 54z m-635 -1288 c14 -12 32 -24 42 -27 9 -3 20 -13 23 -21 5 -13 1 -13 -23 2 -46 29 -111 87 -111 98 0 5 10 0 23 -11 12 -11 33 -29 46 -41z m125 -72 c31 -15 36 -21 22 -26 -23 -9 -66 11 -66 31 0 19 -2 19 44 -5z m174 -71 c12 -5 22 -10 22 -13 0 -7 -85 15 -95 25 -10 11 28 4 73 -12z m117 -20 c14 -6 5 -7 -30 -3 -27 3 -51 7 -54 10 -8 8 64 3 84 -7z" fill="#0f5259"/>
<path d="M1563 1495 c-107 -29 -194 -88 -258 -175 -21 -28 -36 -52 -34 -54 2 -1 44 -9 92 -16 82 -12 88 -15 82 -34 -18 -63 -27 -128 -20 -153 l7 -28 16 22 c24 29 55 43 97 43 52 0 105 -53 105 -104 0 -55 -25 -95 -72 -115 l-41 -17 54 -24 c134 -60 286 -11 366 116 11 18 17 13 83 -53 l71 -72 10 27 c50 128 44 266 -17 389 -98 201 -327 305 -541 248z m222 -39 c70 -19 123 -45 173 -84 43 -34 122 -140 122 -164 0 -8 6 -20 13 -26 20 -21 25 -208 6 -244 -10 -18 -12 -18 -28 -4 -10 9 -22 16 -28 16 -6 0 -18 11 -27 25 -25 38 -53 31 -117 -30 -32 -31 -75 -63 -96 -72 -38 -16 -136 -23 -149 -11 -3 4 4 28 16 53 38 78 16 150 -61 203 -28 20 -43 23 -87 20 l-53 -5 6 52 c6 48 5 54 -20 73 -15 12 -42 24 -61 28 -48 9 -51 21 -13 61 98 100 267 146 404 109z" fill="#0f5259"/>
<path d="M1218 1150 c-13 -44 -9 -175 8 -231 42 -141 122 -237 252 -302 l85 -42 121 0 c119 0 122 1 199 37 75 36 176 118 200 163 5 11 -16 -4 -48 -33 -200 -183 -488 -174 -676 20 -82 85 -119 175 -128 313 -4 67 -8 92 -13 75z" fill="#0f5259"/>
<path d="M473 1708 c-42 -20 -51 -109 -15 -150 13 -15 33 -18 141 -18 69 0 131 4 138 8 38 24 38 130 0 157 -26 18 -228 20 -264 3z m235 -43 c9 -3 12 -18 10 -42 l-3 -38 -104 -3 c-109 -3 -137 6 -128 39 3 10 0 20 -6 22 -8 2 -7 8 2 18 10 11 37 13 115 11 55 -2 107 -5 114 -7z" fill="#0f5259"/>
</g>
</svg>