<?xml version="1.0" standalone="no"?>
<!DOCTYPE svg PUBLIC "-//W3C//DTD SVG 20010904//EN"
 "http://www.w3.org/TR/2001/REC-SVG-20010904/DTD/svg10.dtd">
<svg version="1.0" xmlns="http://www.w3.org/2000/svg"
 width="95.000000pt" height="73.000000pt" viewBox="0 0 95.000000 73.000000"
 preserveAspectRatio="xMidYMid meet">

<g transform="translate(0.000000,73.000000) scale(0.100000,-0.100000)"
fill="#000000" stroke="none">
<path d="M382 655 c41 -28 81 -101 76 -142 -3 -27 -4 -28 -67 -28 -61 0 -65 2
-81 30 -31 57 -141 41 -126 -18 7 -29 46 -53 133 -81 105 -35 163 -100 163
-185 0 -57 -20 -100 -64 -139 l-37 -32 61 0 60 0 12 45 12 46 115 -3 114 -3
11 -40 12 -40 74 0 c44 0 74 4 73 10 0 6 -44 144 -98 308 l-96 297 -192 0
-192 0 37 -25z m294 -253 l31 -107 -64 -3 c-36 -2 -67 -1 -69 1 -3 2 10 54 28
115 17 61 34 109 37 106 4 -3 20 -54 37 -112z"/>
<path d="M66 317 c-9 -31 -16 -58 -16 -61 0 -3 26 -6 58 -6 52 0 58 -2 73 -29
19 -32 66 -46 114 -33 26 7 30 13 30 42 0 32 -4 36 -50 54 -40 15 -155 67
-187 84 -3 2 -13 -21 -22 -51z"/>
</g>
</svg>
