<svg xmlns="http://www.w3.org/2000/svg" version="1.0" width="500.000000pt" height="500.000000pt" viewBox="0 0 500.000000 500.000000" preserveAspectRatio="xMidYMid meet">

<g transform="translate(0.000000,500.000000) scale(0.100000,-0.100000)" fill="#ffffff" stroke="none">
<path d="M1284 4375 c-131 -69 -510 -311 -551 -353 -56 -57 -68 -102 -88 -322 -18 -206 -59 -566 -76 -678 -10 -59 -17 -77 -38 -93 -50 -39 -153 -144 -167 -171 -10 -19 -14 -64 -14 -151 0 -67 -4 -127 -9 -133 -34 -36 -51 -182 -112 -989 -23 -308 -21 -420 12 -555 34 -144 79 -205 196 -263 275 -139 646 -77 747 125 23 45 33 55 80 74 194 79 446 351 561 607 47 103 27 100 220 33 161 -56 320 -97 390 -99 62 -2 95 21 126 88 23 49 24 85 4 111 -8 10 -15 22 -15 27 0 4 504 7 1120 7 l1120 0 0 1120 0 1120 -35 0 c-33 0 -35 2 -35 35 0 32 -2 35 -30 35 -29 0 -30 2 -30 45 l0 45 -285 0 -285 0 0 -45 0 -45 -50 0 -50 0 0 -35 c0 -34 -1 -35 -40 -35 l-40 0 0 105 0 105 -428 0 -427 0 -250 -105 -249 -105 -228 0 -228 0 0 45 0 45 -360 0 -360 0 0 -45 c0 -45 0 -45 -36 -45 l-36 0 25 30 c14 17 36 48 48 70 19 34 28 40 56 40 18 0 36 1 41 3 4 1 8 -8 10 -20 l3 -23 260 0 259 0 0 35 0 35 -202 2 c-176 2 -184 3 -60 5 117 3 142 6 142 18 0 12 -15 15 -72 15 l-73 0 75 38 c88 43 99 61 107 165 4 55 2 75 -8 83 -8 7 -111 16 -249 23 -324 15 -308 16 -386 -24z m287 -31 c26 -4 40 -14 48 -30 10 -23 14 -24 125 -24 63 0 117 -3 119 -7 3 -5 2 -23 0 -41 -4 -25 -14 -37 -42 -51 -55 -28 -255 -88 -354 -106 l-89 -17 -39 26 c-45 30 -50 24 -13 -15 25 -26 25 -27 9 -60 -20 -40 -64 -96 -153 -197 l-64 -72 -52 5 -51 5 40 -15 41 -15 19 -158 c18 -156 17 -242 -4 -281 -6 -11 -89 -72 -184 -137 -255 -173 -255 -173 82 14 315 174 459 245 485 238 62 -16 661 -367 730 -427 23 -21 64 -69 90 -108 l47 -71 -15 -188 c-9 -103 -16 -192 -16 -197 0 -5 -26 16 -57 47 -32 30 -95 84 -140 120 -45 35 -97 84 -116 109 -27 34 -62 60 -148 108 -63 34 -141 78 -174 96 -35 21 -74 35 -94 35 -25 0 -32 4 -28 14 3 8 9 32 12 53 l6 38 -19 -40 c-25 -52 -47 -71 -102 -84 -68 -17 -450 -144 -446 -148 2 -2 68 15 147 37 169 47 365 90 413 90 50 0 152 -73 416 -301 142 -122 265 -246 314 -318 l29 -42 -12 -107 c-28 -246 -34 -282 -50 -282 -58 0 -213 135 -266 232 l-28 51 18 69 c10 38 15 71 12 74 -3 3 -8 -7 -12 -23 -3 -15 -12 -36 -20 -46 -12 -17 -18 -18 -52 -7 -60 20 -151 68 -223 119 -56 39 -66 50 -59 66 4 11 8 29 8 40 1 15 -5 11 -23 -16 -24 -35 -28 -37 -98 -43 -328 -30 -658 -86 -691 -116 -4 -4 20 -19 54 -34 53 -23 88 -29 248 -42 102 -8 222 -19 266 -24 44 -5 110 -9 146 -9 120 -1 301 -59 374 -119 155 -128 309 -247 367 -283 6 -4 0 -25 -17 -53 -37 -63 -29 -87 38 -126 28 -17 76 -38 105 -47 55 -17 64 -28 34 -37 -44 -14 -184 24 -559 150 l-313 106 -162 -10 c-90 -5 -206 -6 -258 -2 -103 9 -130 6 -56 -5 51 -8 54 -13 29 -44 -16 -18 -31 -21 -118 -23 l-100 -3 77 -14 78 -15 -23 -24 c-25 -27 -79 -57 -152 -83 -61 -21 -40 -24 34 -4 45 12 59 12 85 1 68 -30 130 -123 146 -222 23 -141 1 -392 -40 -458 -81 -131 -277 -193 -486 -155 -98 18 -209 66 -259 112 -59 53 -91 140 -108 284 -12 115 -3 293 53 961 37 437 33 426 161 514 49 33 89 62 89 64 0 1 -16 -4 -35 -12 -20 -8 -58 -23 -85 -34 l-50 -20 0 102 0 101 62 62 c35 33 80 74 102 91 l38 30 24 164 c12 90 37 306 54 479 17 174 37 334 45 357 9 22 30 54 48 71 34 33 203 143 431 279 l138 84 92 0 c50 0 107 -3 127 -6z m87 -16 c-6 -18 -28 -21 -28 -4 0 9 7 16 16 16 9 0 14 -5 12 -12z m180 2 c22 0 32 -5 32 -15 0 -12 -17 -15 -89 -15 -102 0 -122 5 -114 27 5 13 18 14 72 9 36 -3 81 -6 99 -6z m2782 -350 l0 -30 -245 0 -245 0 0 30 0 30 245 0 245 0 0 -30z m60 -85 l0 -25 -325 0 -325 0 0 25 0 25 325 0 325 0 0 -25z m-3390 -274 l0 -229 -44 -26 c-58 -34 -67 -33 -59 5 3 17 -2 100 -12 184 l-18 153 64 71 c35 39 65 70 67 71 1 0 2 -103 2 -229z m2630 -56 l0 -265 -72 0 -71 0 60 -63 c105 -109 178 -238 219 -387 28 -100 26 -320 -4 -423 -57 -200 -179 -370 -347 -484 -81 -54 -125 -76 -225 -109 -79 -26 -97 -28 -245 -28 -141 -1 -169 2 -235 22 -310 98 -533 338 -601 647 -20 93 -15 284 10 380 39 148 150 333 250 418 l33 27 -435 0 -434 0 -118 65 c-130 72 -200 105 -222 105 -7 0 -40 -11 -73 -25 -33 -14 -62 -25 -65 -25 -3 0 -5 92 -5 205 l0 205 1290 0 1290 0 0 -265z m820 0 l0 -265 -335 0 -335 0 0 265 0 265 335 0 335 0 0 -265z m0 -1840 l0 -45 -1133 0 -1134 0 -59 41 c-32 23 -61 43 -63 45 -2 2 534 4 1192 4 l1197 0 0 -45z m-2376 -40 c16 -13 17 -17 5 -31 -13 -16 -12 -16 7 -4 19 11 27 8 82 -31 65 -45 75 -67 48 -104 -13 -19 -16 -18 -84 9 -112 44 -175 95 -120 97 l23 1 -22 6 -23 7 20 33 c22 35 35 39 64 17z m-682 -57 c65 -29 118 -59 118 -66 0 -21 -75 -163 -126 -238 -118 -174 -268 -321 -394 -384 l-57 -29 -6 142 c-4 111 -13 169 -36 265 -17 68 -31 126 -31 129 0 10 74 -83 112 -141 21 -33 38 -56 38 -52 0 22 -107 211 -140 249 -22 25 -40 50 -40 56 0 6 37 35 82 66 l83 55 140 0 140 0 117 -52z" fill="#ffffff"/>
<path d="M537 2278 c-25 -20 -47 -82 -47 -135 l1 -48 17 51 c38 109 60 123 174 106 40 -6 74 -9 76 -7 2 1 -22 12 -53 24 -62 23 -143 28 -168 9z" fill="#ffffff"/>
<path d="M584 1960 c-12 -5 -35 -32 -52 -62 -32 -56 -95 -208 -89 -214 2 -2 32 45 67 104 93 156 76 144 215 158 l70 8 -45 7 c-61 10 -140 10 -166 -1z" fill="#ffffff"/>
<path d="M888 1643 c7 -3 16 -2 19 1 4 3 -2 6 -13 5 -11 0 -14 -3 -6 -6z" fill="#ffffff"/>
<path d="M2690 3655 l0 -115 540 0 540 0 0 115 0 115 -540 0 -540 0 0 -115z" fill="#ffffff"/>
<path d="M3115 3420 c-253 -40 -477 -206 -586 -435 -59 -124 -74 -190 -73 -340 0 -155 14 -217 82 -355 39 -80 61 -110 137 -186 54 -55 118 -107 160 -132 454 -265 1034 -17 1156 495 30 125 24 303 -15 418 -71 209 -208 366 -401 460 -49 25 -119 51 -155 60 -83 19 -228 27 -305 15z m323 -153 c103 -36 174 -81 257 -163 125 -124 188 -278 188 -459 0 -157 -38 -270 -137 -401 -111 -149 -287 -240 -481 -251 -117 -6 -214 14 -325 68 -69 34 -101 58 -170 128 -133 134 -190 270 -190 452 0 114 20 201 66 294 83 170 237 294 427 346 102 27 262 21 365 -14z" fill="#ffffff"/>
<path d="M3165 3250 c-86 -10 -141 -27 -219 -68 -136 -71 -236 -189 -290 -342 -27 -75 -30 -98 -30 -195 0 -94 4 -122 28 -190 88 -255 312 -415 579 -415 171 0 304 56 427 180 87 86 131 163 160 276 37 144 18 304 -52 437 -46 87 -174 214 -259 255 -110 53 -230 75 -344 62z m215 -276 c78 -35 160 -121 189 -199 28 -75 28 -185 0 -260 -25 -67 -99 -151 -166 -187 -182 -98 -403 -27 -495 160 -30 60 -33 75 -33 157 0 76 4 98 26 146 88 188 294 266 479 183z" fill="#ffffff"/>
<path d="M3103 2969 c-74 -29 -146 -97 -185 -176 -28 -58 -32 -75 -32 -147 0 -66 5 -91 26 -138 35 -75 94 -138 165 -174 52 -26 68 -29 153 -29 110 0 160 18 230 81 186 168 144 467 -80 573 -76 35 -201 40 -277 10z m212 -138 c70 -31 125 -113 125 -185 0 -39 -24 -98 -57 -135 -121 -142 -352 -55 -353 132 0 91 48 163 130 196 40 16 112 12 155 -8z" fill="#ffffff"/>
</g>
</svg>